<?xml version="1.0" standalone="no"?>
<!DOCTYPE svg PUBLIC "-//W3C//DTD SVG 20010904//EN"
 "http://www.w3.org/TR/2001/REC-SVG-20010904/DTD/svg10.dtd">
<svg version="1.0" xmlns="http://www.w3.org/2000/svg"
 width="584.000000pt" height="584.000000pt" viewBox="0 0 584.000000 584.000000"
 preserveAspectRatio="xMidYMid meet">
<metadata>
Created by potrace 1.11, written by Peter Selinger 2001-2013
</metadata>
<g transform="translate(0.000000,584.000000) scale(0.100000,-0.100000)"
fill="#000000" stroke="none">
<path d="M4720 5818 c-123 -47 -170 -101 -170 -198 0 -54 10 -77 53 -120 15
-16 27 -38 27 -49 0 -68 -214 -517 -286 -599 -100 -115 -353 -243 -463 -236
-27 1 -80 -9 -140 -27 -96 -30 -197 -49 -219 -41 -7 2 0 15 18 32 16 15 30 37
30 48 0 12 12 28 29 38 35 21 43 44 27 76 -15 30 -13 47 7 85 10 20 19 65 22
114 3 45 8 86 11 91 3 5 16 0 28 -11 31 -30 47 -12 34 39 -10 37 -29 61 -93
114 -34 28 -31 35 17 42 99 14 77 29 -112 79 -101 26 -202 43 -253 41 -148 -5
-282 -123 -316 -278 -19 -86 10 -248 45 -248 13 0 19 -15 28 -70 2 -14 12 -41
21 -61 15 -32 16 -40 4 -65 -16 -33 -24 -34 -96 -18 -34 8 -114 11 -229 8
-165 -4 -179 -6 -192 -25 -13 -19 -21 -20 -91 -14 -91 8 -154 22 -201 45 -96
48 -151 57 -460 76 -58 4 -116 8 -130 9 -14 1 -37 3 -52 4 -16 0 -37 10 -48
21 -19 19 -21 31 -17 141 4 130 -3 153 -40 143 -16 -5 -26 -18 -33 -48 -17
-63 -20 -70 -29 -60 -4 5 -40 52 -80 104 -106 138 -175 194 -196 160 -3 -5 3
-28 15 -52 28 -57 26 -58 -20 -10 -44 45 -62 50 -113 29 -65 -28 -66 -39 -8
-123 54 -77 63 -104 21 -59 -25 26 -60 34 -60 13 0 -30 121 -190 193 -255 135
-122 230 -167 542 -258 179 -51 303 -75 397 -75 76 0 180 -30 222 -63 l27 -22
-26 -59 c-37 -83 -29 -96 77 -131 158 -52 185 -76 212 -180 35 -142 43 -459
12 -560 -35 -116 -83 -203 -168 -303 -24 -28 -51 -64 -61 -81 -18 -31 -18 -31
7 -42 21 -10 24 -17 19 -38 -3 -14 -26 -100 -50 -191 -37 -139 -44 -181 -44
-264 -2 -148 -25 -208 -91 -239 -18 -8 -53 -24 -78 -36 -74 -34 -152 -117
-287 -307 -54 -75 -71 -106 -66 -122 7 -27 -2 -38 -97 -121 -89 -78 -106 -91
-272 -214 -213 -158 -211 -158 -389 -161 -69 -1 -132 -7 -140 -11 -8 -5 -21
-10 -29 -12 -30 -4 -60 -27 -61 -47 -4 -51 0 -75 20 -118 11 -26 21 -54 21
-62 0 -16 -59 -60 -130 -96 -36 -19 -68 -25 -165 -30 -109 -6 -163 -18 -166
-38 -5 -27 -4 -73 3 -107 4 -22 10 -91 14 -153 6 -101 4 -118 -16 -174 -27
-76 -23 -113 26 -207 60 -114 104 -165 144 -169 44 -5 60 15 51 66 -10 50 -6
121 10 184 21 89 36 116 68 123 37 8 58 31 64 72 3 18 12 40 21 48 12 12 13
22 6 41 -6 14 -10 27 -10 29 0 9 51 51 141 116 83 60 101 68 127 63 30 -6 59
7 217 96 47 27 190 106 260 145 28 15 55 31 60 35 6 4 30 19 55 32 95 53 362
209 466 273 193 118 252 171 479 436 82 96 154 179 160 185 5 6 28 32 50 58
22 27 49 58 60 71 11 12 40 46 65 75 69 82 69 82 161 86 46 2 125 5 174 8 341
20 331 20 348 -5 15 -21 19 -21 55 -11 25 8 49 9 71 2 18 -5 64 -10 102 -11
63 -2 72 -5 93 -30 13 -15 33 -64 45 -108 31 -114 52 -156 127 -257 99 -133
124 -191 168 -396 21 -94 37 -111 91 -97 61 16 77 13 108 -23 73 -83 103 -142
116 -227 6 -35 17 -74 26 -87 24 -36 109 -100 160 -120 89 -33 122 0 181 183
31 94 46 125 82 167 62 73 98 138 132 242 37 116 45 178 30 233 -16 60 -49 91
-97 91 -64 0 -83 -27 -77 -109 5 -70 -8 -110 -52 -155 -46 -48 -131 -96 -170
-96 -34 0 -54 -15 -54 -42 0 -12 -8 -18 -23 -18 -47 0 -82 53 -44 66 12 5 25
7 28 7 3 -1 18 8 34 21 41 33 29 60 -71 163 -104 106 -119 128 -179 269 -97
227 -149 378 -160 469 -22 178 -44 235 -120 310 -74 74 -114 90 -224 87 -108
-2 -181 14 -376 85 -159 58 -225 74 -313 78 -40 1 -76 6 -80 9 -10 11 12 59
97 209 105 186 150 295 206 507 26 96 59 194 72 217 27 46 79 90 274 231 147
106 173 134 195 208 22 77 48 102 165 163 331 172 394 258 495 676 14 59 27
117 29 127 2 11 6 27 9 36 5 17 9 34 30 157 15 81 12 163 -8 219 -12 34 -11
42 2 66 13 23 14 33 4 54 -14 31 -29 32 -102 4z m-1404 -1934 c1 -27 2 -57 3
-66 1 -10 23 -27 56 -42 59 -27 71 -42 61 -79 l-6 -24 -57 28 c-32 15 -58 27
-59 26 -1 -1 -5 -39 -8 -83 -4 -45 -9 -93 -11 -105 -2 -13 -6 -40 -9 -59 -3
-19 -7 -44 -10 -55 -2 -11 -7 -39 -11 -62 -8 -52 -16 -58 -54 -39 l-29 15 14
64 c7 35 16 86 19 113 3 27 8 58 10 69 2 11 7 54 10 96 l7 77 -34 10 c-18 6
-52 16 -75 22 -40 10 -43 13 -43 45 0 40 4 41 75 21 28 -7 57 -15 65 -17 14
-4 16 5 19 89 l1 32 33 -13 c30 -13 32 -17 33 -63z"/>
</g>
</svg>
